<mxfile host="drawio-plugin" modified="2023-02-15T10:59:52.133Z" agent="5.0 (Windows NT 6.2; Win64; x64) AppleWebKit/537.36 (KHTML, like Gecko) Chrome/98.0.4758.102 Safari/537.36" etag="72DczX_j0v-o7ZaPENUZ" version="20.5.3" type="embed"><diagram id="VQ1ZgqNbtzFpC4DYkh0a" name="Page-1"><mxGraphModel dx="1378" dy="743" grid="1" gridSize="10" guides="1" tooltips="1" connect="1" arrows="1" fold="1" page="1" pageScale="1" pageWidth="1654" pageHeight="2336" background="#000000" math="0" shadow="0"><root><mxCell id="0"/><mxCell id="1" parent="0"/><mxCell id="7" style="edgeStyle=orthogonalEdgeStyle;rounded=0;orthogonalLoop=1;jettySize=auto;html=1;entryX=0;entryY=0.5;entryDx=0;entryDy=0;fontColor=#FFFFFF;strokeColor=#FFFFFF;startArrow=none;" parent="1" source="8" target="3" edge="1"><mxGeometry relative="1" as="geometry"/></mxCell><mxCell id="2" value="&lt;font color=&quot;#ffffff&quot;&gt;Link&lt;/font&gt;" style="swimlane;whiteSpace=wrap;html=1;strokeColor=#FFFFFF;fillColor=#000000;" parent="1" vertex="1"><mxGeometry x="400" y="2020" width="120" height="120" as="geometry"/></mxCell><mxCell id="5" value="Text" style="text;html=1;align=center;verticalAlign=middle;resizable=0;points=[];autosize=1;strokeColor=none;fillColor=none;fontColor=#FFFFFF;" parent="2" vertex="1"><mxGeometry x="35" y="20" width="50" height="30" as="geometry"/></mxCell><mxCell id="6" value="Passage title" style="text;html=1;align=center;verticalAlign=middle;resizable=0;points=[];autosize=1;strokeColor=none;fillColor=none;fontColor=#FFFFFF;" parent="2" vertex="1"><mxGeometry x="15" y="50" width="90" height="30" as="geometry"/></mxCell><mxCell id="4" value="List of actions" style="text;html=1;align=center;verticalAlign=middle;resizable=0;points=[];autosize=1;strokeColor=none;fillColor=none;fontColor=#FFFFFF;" parent="2" vertex="1"><mxGeometry x="10" y="80" width="100" height="30" as="geometry"/></mxCell><mxCell id="19" style="edgeStyle=orthogonalEdgeStyle;rounded=0;orthogonalLoop=1;jettySize=auto;html=1;entryX=0.5;entryY=1;entryDx=0;entryDy=0;strokeColor=#FFFFFF;fontColor=#FFFFFF;exitX=0.007;exitY=0.478;exitDx=0;exitDy=0;startArrow=none;exitPerimeter=0;" parent="1" source="20" target="2" edge="1"><mxGeometry relative="1" as="geometry"><Array as="points"/></mxGeometry></mxCell><mxCell id="3" value="Passage" style="swimlane;whiteSpace=wrap;html=1;strokeColor=#FFFFFF;fontColor=#FFFFFF;fillColor=#000000;" parent="1" vertex="1"><mxGeometry x="640" y="2000" width="120" height="160" as="geometry"/></mxCell><mxCell id="10" value="Title" style="text;html=1;align=center;verticalAlign=middle;resizable=0;points=[];autosize=1;strokeColor=none;fillColor=none;fontColor=#FFFFFF;" parent="3" vertex="1"><mxGeometry x="35" y="30" width="50" height="30" as="geometry"/></mxCell><mxCell id="11" value="Content" style="text;html=1;align=center;verticalAlign=middle;resizable=0;points=[];autosize=1;strokeColor=none;fillColor=none;fontColor=#FFFFFF;" parent="3" vertex="1"><mxGeometry x="25" y="60" width="70" height="30" as="geometry"/></mxCell><mxCell id="12" value="List of links" style="text;html=1;align=center;verticalAlign=middle;resizable=0;points=[];autosize=1;strokeColor=none;fillColor=none;fontColor=#FFFFFF;" parent="3" vertex="1"><mxGeometry x="20" y="90" width="80" height="30" as="geometry"/></mxCell><mxCell id="86" value="Enemies" style="text;html=1;align=center;verticalAlign=middle;resizable=0;points=[];autosize=1;strokeColor=none;fillColor=none;fontColor=#FFFFFF;" parent="3" vertex="1"><mxGeometry x="25" y="120" width="70" height="30" as="geometry"/></mxCell><mxCell id="8" value="Links to" style="text;html=1;align=center;verticalAlign=middle;resizable=0;points=[];autosize=1;strokeColor=none;fillColor=none;fontColor=#FFFFFF;" parent="1" vertex="1"><mxGeometry x="540" y="2065" width="60" height="30" as="geometry"/></mxCell><mxCell id="9" value="" style="edgeStyle=orthogonalEdgeStyle;rounded=0;orthogonalLoop=1;jettySize=auto;html=1;entryX=0;entryY=0.5;entryDx=0;entryDy=0;fontColor=#FFFFFF;strokeColor=#FFFFFF;endArrow=none;" parent="1" source="2" target="8" edge="1"><mxGeometry relative="1" as="geometry"><mxPoint x="495" y="2060" as="sourcePoint"/><mxPoint x="640" y="2060" as="targetPoint"/></mxGeometry></mxCell><mxCell id="26" style="edgeStyle=orthogonalEdgeStyle;rounded=0;orthogonalLoop=1;jettySize=auto;html=1;entryX=0.5;entryY=1;entryDx=0;entryDy=0;strokeColor=#FFFFFF;fontColor=#FFFFFF;endArrow=none;endFill=0;" parent="1" source="20" target="3" edge="1"><mxGeometry relative="1" as="geometry"/></mxCell><mxCell id="87" style="edgeStyle=orthogonalEdgeStyle;rounded=0;orthogonalLoop=1;jettySize=auto;html=1;entryX=0;entryY=0.5;entryDx=0;entryDy=0;strokeColor=#FFFFFF;fontColor=#FFFFFF;endArrow=classic;endFill=1;" parent="1" source="20" target="57" edge="1"><mxGeometry relative="1" as="geometry"/></mxCell><mxCell id="20" value="Contains multiple" style="text;html=1;align=center;verticalAlign=middle;resizable=0;points=[];autosize=1;strokeColor=none;fillColor=none;fontColor=#FFFFFF;" parent="1" vertex="1"><mxGeometry x="640" y="2210" width="120" height="30" as="geometry"/></mxCell><mxCell id="39" style="edgeStyle=orthogonalEdgeStyle;rounded=0;orthogonalLoop=1;jettySize=auto;html=1;entryX=0.5;entryY=0;entryDx=0;entryDy=0;strokeColor=#FFFFFF;fontColor=#FFFFFF;endArrow=classic;endFill=1;startArrow=none;" parent="1" source="40" target="2" edge="1"><mxGeometry relative="1" as="geometry"/></mxCell><mxCell id="50" style="edgeStyle=orthogonalEdgeStyle;rounded=0;orthogonalLoop=1;jettySize=auto;html=1;entryX=1;entryY=0.5;entryDx=0;entryDy=0;strokeColor=#FFFFFF;fontColor=#FFFFFF;endArrow=classic;endFill=1;startArrow=none;" parent="1" source="51" target="3" edge="1"><mxGeometry relative="1" as="geometry"/></mxCell><mxCell id="34" value="Story" style="swimlane;whiteSpace=wrap;html=1;strokeColor=#FFFFFF;fontColor=#FFFFFF;fillColor=#000000;" parent="1" vertex="1"><mxGeometry x="520" y="1795" width="120" height="120" as="geometry"/></mxCell><mxCell id="35" value="Title" style="text;html=1;align=center;verticalAlign=middle;resizable=0;points=[];autosize=1;strokeColor=none;fillColor=none;fontColor=#FFFFFF;" parent="34" vertex="1"><mxGeometry x="35" y="20" width="50" height="30" as="geometry"/></mxCell><mxCell id="36" value="Map of passages" style="text;html=1;align=center;verticalAlign=middle;resizable=0;points=[];autosize=1;strokeColor=none;fillColor=none;fontColor=#FFFFFF;" parent="34" vertex="1"><mxGeometry x="5" y="50" width="110" height="30" as="geometry"/></mxCell><mxCell id="37" value="Opening passage" style="text;html=1;align=center;verticalAlign=middle;resizable=0;points=[];autosize=1;strokeColor=none;fillColor=none;fontColor=#FFFFFF;" parent="34" vertex="1"><mxGeometry y="80" width="120" height="30" as="geometry"/></mxCell><mxCell id="40" value="Map keys" style="text;html=1;align=center;verticalAlign=middle;resizable=0;points=[];autosize=1;strokeColor=none;fillColor=none;fontColor=#FFFFFF;" parent="1" vertex="1"><mxGeometry x="425" y="1930" width="70" height="30" as="geometry"/></mxCell><mxCell id="41" value="" style="edgeStyle=orthogonalEdgeStyle;rounded=0;orthogonalLoop=1;jettySize=auto;html=1;entryX=0.5;entryY=0;entryDx=0;entryDy=0;strokeColor=#FFFFFF;fontColor=#FFFFFF;endArrow=none;endFill=1;" parent="1" source="34" target="40" edge="1"><mxGeometry relative="1" as="geometry"><mxPoint x="500" y="1730" as="sourcePoint"/><mxPoint x="427.4999999999998" y="2000" as="targetPoint"/></mxGeometry></mxCell><mxCell id="42" style="edgeStyle=orthogonalEdgeStyle;rounded=0;orthogonalLoop=1;jettySize=auto;html=1;strokeColor=#FFFFFF;fontColor=#FFFFFF;endArrow=classic;endFill=1;startArrow=none;" parent="1" source="43" target="3" edge="1"><mxGeometry relative="1" as="geometry"/></mxCell><mxCell id="43" value="Map values" style="text;html=1;align=center;verticalAlign=middle;resizable=0;points=[];autosize=1;strokeColor=none;fillColor=none;fontColor=#FFFFFF;" parent="1" vertex="1"><mxGeometry x="660" y="1930" width="80" height="30" as="geometry"/></mxCell><mxCell id="44" value="" style="edgeStyle=orthogonalEdgeStyle;rounded=0;orthogonalLoop=1;jettySize=auto;html=1;strokeColor=#FFFFFF;fontColor=#FFFFFF;endArrow=none;endFill=1;exitX=1;exitY=0.5;exitDx=0;exitDy=0;" parent="1" source="34" target="43" edge="1"><mxGeometry relative="1" as="geometry"><mxPoint x="680" y="1710" as="sourcePoint"/><mxPoint x="700" y="2000" as="targetPoint"/></mxGeometry></mxCell><mxCell id="51" value="Contains&lt;br&gt;first passage" style="text;html=1;align=center;verticalAlign=middle;resizable=0;points=[];autosize=1;strokeColor=none;fillColor=none;fontColor=#FFFFFF;" parent="1" vertex="1"><mxGeometry x="790" y="2060" width="90" height="40" as="geometry"/></mxCell><mxCell id="52" value="" style="edgeStyle=orthogonalEdgeStyle;rounded=0;orthogonalLoop=1;jettySize=auto;html=1;strokeColor=#FFFFFF;fontColor=#FFFFFF;endArrow=none;endFill=1;" parent="1" source="34" target="51" edge="1"><mxGeometry relative="1" as="geometry"><mxPoint x="620" y="1730" as="sourcePoint"/><mxPoint x="760" y="2060" as="targetPoint"/></mxGeometry></mxCell><mxCell id="54" value="GenericEntity (abstract)" style="swimlane;whiteSpace=wrap;html=1;strokeColor=#FFFFFF;fontColor=#FFFFFF;fillColor=#000000;" parent="1" vertex="1"><mxGeometry x="1120" y="2000" width="160" height="120" as="geometry"/></mxCell><mxCell id="55" value="Health" style="text;html=1;align=center;verticalAlign=middle;resizable=0;points=[];autosize=1;strokeColor=none;fillColor=none;fontColor=#FFFFFF;" parent="54" vertex="1"><mxGeometry x="50" y="40" width="60" height="30" as="geometry"/></mxCell><mxCell id="58" value="Inventory (List)" style="text;html=1;align=center;verticalAlign=middle;resizable=0;points=[];autosize=1;strokeColor=none;fillColor=none;fontColor=#FFFFFF;" parent="54" vertex="1"><mxGeometry x="30" y="80" width="100" height="30" as="geometry"/></mxCell><mxCell id="80" style="edgeStyle=orthogonalEdgeStyle;rounded=0;orthogonalLoop=1;jettySize=auto;html=1;strokeColor=#FFFFFF;fontColor=#FFFFFF;endArrow=none;endFill=0;exitX=0.5;exitY=1;exitDx=0;exitDy=0;entryX=0.994;entryY=0.461;entryDx=0;entryDy=0;entryPerimeter=0;" parent="1" source="56" target="79" edge="1"><mxGeometry relative="1" as="geometry"><mxPoint x="1290" y="2160" as="targetPoint"/></mxGeometry></mxCell><mxCell id="56" value="Player&lt;br&gt;" style="swimlane;whiteSpace=wrap;html=1;strokeColor=#FFFFFF;fontColor=#FFFFFF;fillColor=#000000;" parent="1" vertex="1"><mxGeometry x="1280" y="1820" width="120" height="160" as="geometry"/></mxCell><mxCell id="63" value="Name" style="text;html=1;align=center;verticalAlign=middle;resizable=0;points=[];autosize=1;strokeColor=none;fillColor=none;fontColor=#FFFFFF;" parent="56" vertex="1"><mxGeometry x="30" y="30" width="60" height="30" as="geometry"/></mxCell><mxCell id="64" value="Score" style="text;html=1;align=center;verticalAlign=middle;resizable=0;points=[];autosize=1;strokeColor=none;fillColor=none;fontColor=#FFFFFF;" parent="56" vertex="1"><mxGeometry x="35" y="60" width="50" height="30" as="geometry"/></mxCell><mxCell id="65" value="Gold" style="text;html=1;align=center;verticalAlign=middle;resizable=0;points=[];autosize=1;strokeColor=none;fillColor=none;fontColor=#FFFFFF;" parent="56" vertex="1"><mxGeometry x="35" y="90" width="50" height="30" as="geometry"/></mxCell><mxCell id="135" value="Weapon" style="text;html=1;align=center;verticalAlign=middle;resizable=0;points=[];autosize=1;strokeColor=none;fillColor=none;fontColor=#FFFFFF;" parent="56" vertex="1"><mxGeometry x="25" y="120" width="70" height="30" as="geometry"/></mxCell><mxCell id="81" style="edgeStyle=orthogonalEdgeStyle;rounded=0;orthogonalLoop=1;jettySize=auto;html=1;strokeColor=#FFFFFF;fontColor=#FFFFFF;endArrow=none;endFill=0;exitX=0.5;exitY=1;exitDx=0;exitDy=0;entryX=0.004;entryY=0.489;entryDx=0;entryDy=0;entryPerimeter=0;" parent="1" source="57" target="79" edge="1"><mxGeometry relative="1" as="geometry"><mxPoint x="1110" y="2170" as="targetPoint"/></mxGeometry></mxCell><mxCell id="57" value="Enemy (abstract)" style="swimlane;whiteSpace=wrap;html=1;strokeColor=#FFFFFF;fontColor=#FFFFFF;fillColor=#000000;" parent="1" vertex="1"><mxGeometry x="1000" y="1840" width="120" height="120" as="geometry"/></mxCell><mxCell id="60" value="???" style="text;html=1;align=center;verticalAlign=middle;resizable=0;points=[];autosize=1;strokeColor=none;fillColor=none;fontColor=#FFFFFF;" parent="57" vertex="1"><mxGeometry x="40" y="80" width="40" height="30" as="geometry"/></mxCell><mxCell id="136" value="Weapon" style="text;html=1;align=center;verticalAlign=middle;resizable=0;points=[];autosize=1;strokeColor=none;fillColor=none;fontColor=#FFFFFF;" parent="57" vertex="1"><mxGeometry x="25" y="45" width="70" height="30" as="geometry"/></mxCell><mxCell id="61" value="Actor (Interface)" style="swimlane;whiteSpace=wrap;html=1;strokeColor=#FFFFFF;fontColor=#FFFFFF;fillColor=#000000;" parent="1" vertex="1"><mxGeometry x="1140" y="2240" width="120" height="80" as="geometry"/></mxCell><mxCell id="62" value="doAction()" style="text;html=1;align=center;verticalAlign=middle;resizable=0;points=[];autosize=1;strokeColor=none;fillColor=none;fontColor=#FFFFFF;" parent="61" vertex="1"><mxGeometry x="20" y="40" width="80" height="30" as="geometry"/></mxCell><mxCell id="82" style="edgeStyle=orthogonalEdgeStyle;rounded=0;orthogonalLoop=1;jettySize=auto;html=1;entryX=0.5;entryY=0;entryDx=0;entryDy=0;strokeColor=#FFFFFF;fontColor=#FFFFFF;endArrow=classic;endFill=1;" parent="1" source="79" target="61" edge="1"><mxGeometry relative="1" as="geometry"/></mxCell><mxCell id="79" value="Implements" style="text;html=1;align=center;verticalAlign=middle;resizable=0;points=[];autosize=1;strokeColor=none;fillColor=none;fontColor=#FFFFFF;" parent="1" vertex="1"><mxGeometry x="1155" y="2170" width="90" height="30" as="geometry"/></mxCell><mxCell id="88" value="Weapon (abstract)" style="swimlane;whiteSpace=wrap;html=1;strokeColor=#FFFFFF;fontColor=#FFFFFF;fillColor=#000000;" parent="1" vertex="1"><mxGeometry x="1140" y="1640" width="120" height="80" as="geometry"/></mxCell><mxCell id="89" value="Damage" style="text;html=1;align=center;verticalAlign=middle;resizable=0;points=[];autosize=1;strokeColor=none;fillColor=none;fontColor=#FFFFFF;" parent="88" vertex="1"><mxGeometry x="25" y="40" width="70" height="30" as="geometry"/></mxCell><mxCell id="95" style="edgeStyle=orthogonalEdgeStyle;rounded=0;orthogonalLoop=1;jettySize=auto;html=1;entryX=0.25;entryY=1;entryDx=0;entryDy=0;strokeColor=#FFFFFF;fontColor=#FFFFFF;endArrow=classic;endFill=1;startArrow=none;" parent="1" source="96" target="57" edge="1"><mxGeometry relative="1" as="geometry"/></mxCell><mxCell id="100" style="edgeStyle=orthogonalEdgeStyle;rounded=0;orthogonalLoop=1;jettySize=auto;html=1;entryX=-0.006;entryY=0.489;entryDx=0;entryDy=0;entryPerimeter=0;strokeColor=#FFFFFF;fontColor=#FFFFFF;endArrow=none;endFill=0;" parent="1" source="94" target="79" edge="1"><mxGeometry relative="1" as="geometry"/></mxCell><mxCell id="94" value="Various enemies extending the abstract base class" style="rounded=0;whiteSpace=wrap;html=1;strokeColor=#FFFFFF;fontColor=#FFFFFF;fillColor=#000000;" parent="1" vertex="1"><mxGeometry x="920" y="2240" width="120" height="80" as="geometry"/></mxCell><mxCell id="96" value="Extends" style="text;html=1;align=center;verticalAlign=middle;resizable=0;points=[];autosize=1;strokeColor=none;fillColor=none;fontColor=#FFFFFF;" parent="1" vertex="1"><mxGeometry x="945" y="2065" width="70" height="30" as="geometry"/></mxCell><mxCell id="98" value="" style="edgeStyle=orthogonalEdgeStyle;rounded=0;orthogonalLoop=1;jettySize=auto;html=1;entryX=0.5;entryY=1;entryDx=0;entryDy=0;strokeColor=#FFFFFF;fontColor=#FFFFFF;endArrow=none;endFill=1;entryPerimeter=0;" parent="1" source="94" target="96" edge="1"><mxGeometry relative="1" as="geometry"><mxPoint x="980" y="2240" as="sourcePoint"/><mxPoint x="1030" y="1940" as="targetPoint"/></mxGeometry></mxCell><mxCell id="120" style="edgeStyle=orthogonalEdgeStyle;rounded=0;orthogonalLoop=1;jettySize=auto;html=1;entryX=0;entryY=0.5;entryDx=0;entryDy=0;strokeColor=#FFFFFF;fontColor=#FFFFFF;endArrow=classic;endFill=1;startArrow=none;" parent="1" source="121" target="88" edge="1"><mxGeometry relative="1" as="geometry"/></mxCell><mxCell id="101" value="Various weapons extending the abstract base class" style="rounded=0;whiteSpace=wrap;html=1;strokeColor=#FFFFFF;fontColor=#FFFFFF;fillColor=#000000;" parent="1" vertex="1"><mxGeometry x="840" y="1640" width="120" height="80" as="geometry"/></mxCell><mxCell id="107" style="edgeStyle=orthogonalEdgeStyle;rounded=0;orthogonalLoop=1;jettySize=auto;html=1;strokeColor=#FFFFFF;fontColor=#FFFFFF;endArrow=none;endFill=0;" parent="1" source="106" target="57" edge="1"><mxGeometry relative="1" as="geometry"/></mxCell><mxCell id="108" style="edgeStyle=orthogonalEdgeStyle;rounded=0;orthogonalLoop=1;jettySize=auto;html=1;entryX=0.5;entryY=0;entryDx=0;entryDy=0;strokeColor=#FFFFFF;fontColor=#FFFFFF;endArrow=none;endFill=0;" parent="1" source="106" target="56" edge="1"><mxGeometry relative="1" as="geometry"/></mxCell><mxCell id="109" style="edgeStyle=orthogonalEdgeStyle;rounded=0;orthogonalLoop=1;jettySize=auto;html=1;entryX=0.5;entryY=1;entryDx=0;entryDy=0;strokeColor=#FFFFFF;fontColor=#FFFFFF;endArrow=classic;endFill=1;" parent="1" source="106" target="88" edge="1"><mxGeometry relative="1" as="geometry"/></mxCell><mxCell id="106" value="Has" style="text;html=1;align=center;verticalAlign=middle;resizable=0;points=[];autosize=1;strokeColor=none;fillColor=none;fontColor=#FFFFFF;" parent="1" vertex="1"><mxGeometry x="1180" y="1765" width="40" height="30" as="geometry"/></mxCell><mxCell id="116" value="Game" style="swimlane;whiteSpace=wrap;html=1;strokeColor=#FFFFFF;fontColor=#FFFFFF;fillColor=#000000;" parent="1" vertex="1"><mxGeometry x="800" y="1440" width="120" height="120" as="geometry"/></mxCell><mxCell id="117" value="Player" style="text;html=1;align=center;verticalAlign=middle;resizable=0;points=[];autosize=1;strokeColor=none;fillColor=none;fontColor=#FFFFFF;" parent="116" vertex="1"><mxGeometry x="30" y="20" width="60" height="30" as="geometry"/></mxCell><mxCell id="118" value="Story" style="text;html=1;align=center;verticalAlign=middle;resizable=0;points=[];autosize=1;strokeColor=none;fillColor=none;fontColor=#FFFFFF;" parent="116" vertex="1"><mxGeometry x="35" y="50" width="50" height="30" as="geometry"/></mxCell><mxCell id="119" value="Goals" style="text;html=1;align=center;verticalAlign=middle;resizable=0;points=[];autosize=1;strokeColor=none;fillColor=none;fontColor=#FFFFFF;" parent="116" vertex="1"><mxGeometry x="35" y="80" width="50" height="30" as="geometry"/></mxCell><mxCell id="121" value="Extends" style="text;html=1;align=center;verticalAlign=middle;resizable=0;points=[];autosize=1;strokeColor=none;fillColor=none;fontColor=#FFFFFF;" parent="1" vertex="1"><mxGeometry x="1010" y="1665" width="70" height="30" as="geometry"/></mxCell><mxCell id="122" value="" style="edgeStyle=orthogonalEdgeStyle;rounded=0;orthogonalLoop=1;jettySize=auto;html=1;entryX=0;entryY=0.5;entryDx=0;entryDy=0;strokeColor=#FFFFFF;fontColor=#FFFFFF;endArrow=none;endFill=1;" parent="1" source="101" target="121" edge="1"><mxGeometry relative="1" as="geometry"><mxPoint x="960" y="1720" as="sourcePoint"/><mxPoint x="1140" y="1720" as="targetPoint"/></mxGeometry></mxCell><mxCell id="132" style="edgeStyle=orthogonalEdgeStyle;rounded=0;orthogonalLoop=1;jettySize=auto;html=1;strokeColor=#FFFFFF;fontColor=#FFFFFF;endArrow=classic;endFill=1;" parent="1" source="123" target="34" edge="1"><mxGeometry relative="1" as="geometry"/></mxCell><mxCell id="134" style="edgeStyle=orthogonalEdgeStyle;rounded=0;orthogonalLoop=1;jettySize=auto;html=1;entryX=1;entryY=0.5;entryDx=0;entryDy=0;strokeColor=#FFFFFF;fontColor=#FFFFFF;endArrow=classic;endFill=1;" parent="1" source="123" target="56" edge="1"><mxGeometry relative="1" as="geometry"/></mxCell><mxCell id="123" value="Contains" style="text;html=1;align=center;verticalAlign=middle;resizable=0;points=[];autosize=1;strokeColor=none;fillColor=none;fontColor=#FFFFFF;" parent="1" vertex="1"><mxGeometry x="825" y="1600" width="70" height="30" as="geometry"/></mxCell><mxCell id="131" value="" style="edgeStyle=orthogonalEdgeStyle;rounded=0;orthogonalLoop=1;jettySize=auto;html=1;entryX=0.5;entryY=0;entryDx=0;entryDy=0;strokeColor=#FFFFFF;fontColor=#FFFFFF;endArrow=none;endFill=1;exitX=0.5;exitY=1;exitDx=0;exitDy=0;" parent="1" source="116" target="123" edge="1"><mxGeometry relative="1" as="geometry"><mxPoint x="860" y="1560" as="sourcePoint"/><mxPoint x="580" y="1795" as="targetPoint"/></mxGeometry></mxCell><mxCell id="138" value="Extends" style="endArrow=block;endSize=16;endFill=0;html=1;rounded=0;entryX=0.5;entryY=0;entryDx=0;entryDy=0;exitX=1;exitY=0.5;exitDx=0;exitDy=0;strokeColor=#FFFFFF;" edge="1" parent="1" source="57" target="54"><mxGeometry width="160" relative="1" as="geometry"><mxPoint x="1110" y="1899.66" as="sourcePoint"/><mxPoint x="1270" y="1899.66" as="targetPoint"/></mxGeometry></mxCell><mxCell id="139" value="Extends" style="endArrow=block;endSize=16;endFill=0;html=1;rounded=0;exitX=0;exitY=0.5;exitDx=0;exitDy=0;strokeColor=#FFFFFF;" edge="1" parent="1" source="56"><mxGeometry width="160" relative="1" as="geometry"><mxPoint x="1170" y="1860" as="sourcePoint"/><mxPoint x="1200" y="2000" as="targetPoint"/></mxGeometry></mxCell></root></mxGraphModel></diagram></mxfile>